<svg width="800" height="800" viewBox="0 0 400 400" fill="none" xmlns="http://www.w3.org/2000/svg"><path d="M245.2 134.3c49-60.3-26.2-52-37-57.5-3.9-2-7.7-20.4-16.2-16.2-13.1 6.6-12 40.8-13.4 52.2-.8 6.2-9.5 15-12.3 21.5-4.6 10.2-9.6 22.4-18 35.1-8.3 12.7-25.7 22.6-34.4 32.3C76.7 243 92.6 291.6 133.4 323c41.3 31.8 213.7 20 165-53.2" stroke="#000" stroke-opacity=".9" stroke-width="16" stroke-linecap="round" stroke-linejoin="round"/><path d="M225.9 162.3c12.1 44.3-5.3 90.6-5.3 134 0 5 10 .2 14.8 1.1" stroke="#000" stroke-opacity=".9" stroke-width="16" stroke-linecap="round" stroke-linejoin="round"/><path d="M162.7 208.9a50.6 50.6 0 0 1 25.5 15.3c34.4 33.3-9.5 55.7-12 67.4-.5 2.7 10.8 4.5 13.1 4.8" stroke="#000" stroke-opacity=".9" stroke-width="16" stroke-linecap="round" stroke-linejoin="round"/><path d="M211.5 63c6.7-6.2 8 4.7 9.1 10.6" stroke="#000" stroke-opacity=".9" stroke-width="16" stroke-linecap="round" stroke-linejoin="round"/></svg>