<svg xmlns="http://www.w3.org/2000/svg" xmlns:xlink="http://www.w3.org/1999/xlink" width="800" height="800" viewBox="0 0 406 406" xml:space="preserve"><path d="M182.2 227.2a79.2 79.2 0 0 1 14.2 11c1.7 1.9 4 3 6.5 3s4.9-1.2 6.5-3c3.4-3.7 8.6-7.3 14.1-11 13.8-9.2 30.9-20.6 30.9-43.3a31.3 31.3 0 0 0-50.5-24.7l-1 .7-.8-.7a31.3 31.3 0 0 0-50.5 24.6c0 22.8 17 34.2 30.6 43.4z"/><path d="M402.3 253.1c-27.2-5.3-53-9-79-11.3a174 174 0 0 0-24.8-.4v-26.8a41.8 41.8 0 0 0 11.9-67.3l-78-77.9a41.4 41.4 0 0 0-58.9 0l-77.9 78a41.8 41.8 0 0 0 11.9 67.2v55c-26.3-6.5-61.7-15.1-71.6-17.3-3.6-.8-7.2-1.2-10.8-1.2-12.9 0-23.4 5.2-25 12.2-.7 3.4.2 10.1 14.3 16.6l123.7 52 12.9 5.3c13.7 5.7 28 11.6 41.1 11.6 5.5 0 10.8-.6 16-1.8 9.6-2 33.8-9.3 59.4-16.8 25-7.4 50.7-15 61-17.4 8.1-1.8 16.5-2.7 25.5-2.7 15.7 0 31 2.6 46.7 5.6l5.3 1v-62.9l-3.7-.7zm-263.6 43.6c2.8 8.7 14.4 12.6 37.6 12.6 15.5 0 34.7-1.8 55-3.6l9.9-.9a280.9 280.9 0 0 1-70.5 11.3c-21.9 0-36.2-5.1-40.2-14.3-2.8-6.6-.1-14.8 7.6-23.2l1.2-1.2-1.7-.4-8.1-2c-.6-2-1-4-1-6.2v-61.6c0-5-3.4-9.2-8.1-10.3a20.7 20.7 0 0 1-9.9-34.7l77.9-77.9a20.5 20.5 0 0 1 29.2 0l77.9 77.9a20.7 20.7 0 0 1-9.9 34.7 10.5 10.5 0 0 0-8.1 10.3v36.5a343 343 0 0 0-57.6 16.5c-7.5 2.7-18.5 5.3-30.1 8.2-17 4-34.5 8.3-42.8 13-7.4 4.2-10.3 9.3-8.3 15.3z"/></svg>